<svg xmlns="http://www.w3.org/2000/svg" xmlns:svg="http://www.w3.org/2000/svg" id="svg168" width="512" height="512" version="1.1" viewBox="0 0 183.133 183.133"><defs id="defs162"><clipPath id="clipPath2310" clipPathUnits="userSpaceOnUse"><circle style="fill:#f2c011;fill-opacity:1;stroke:none;stroke-width:0;stroke-miterlimit:4;stroke-dasharray:none" id="circle2312" cx="104.919" cy="158.394" r="82.542"/></clipPath><clipPath id="clipPath2314" clipPathUnits="userSpaceOnUse"><circle style="fill:#f2c011;fill-opacity:1;stroke:none;stroke-width:0;stroke-miterlimit:4;stroke-dasharray:none" id="circle2316" cx="104.919" cy="158.394" r="82.542"/></clipPath><mask id="mask2781" maskUnits="userSpaceOnUse"><circle style="display:inline;fill:#f6d32d;fill-opacity:1;stroke:none;stroke-width:0;stroke-miterlimit:4;stroke-dasharray:none" id="circle2783" cx="104.919" cy="152.394" r="82.542"/></mask></defs><metadata id="metadata165"/><g id="layer1" style="display:inline" transform="translate(-13.352196,-63.22842)"><circle style="fill:#b69f35;fill-opacity:1;stroke:none;stroke-width:0;stroke-miterlimit:4;stroke-dasharray:none" id="path1923" cx="104.919" cy="160.516" r="82.493"/><circle style="display:inline;fill:#f9f06b;fill-opacity:1;stroke:none;stroke-width:0;stroke-miterlimit:4;stroke-dasharray:none" id="circle2787" cx="104.919" cy="151.788" r="82.493"/><path id="circle1176" style="display:inline;fill:#f6d32d;fill-opacity:1;stroke:none;stroke-width:0;stroke-miterlimit:4;stroke-dasharray:none" d="M 104.9187,124.34262 A 82.49333,82.49333 0 0 0 27.152814,179.312 82.49333,82.49333 0 0 0 104.9187,234.28187 82.49333,82.49333 0 0 0 182.68509,179.312 82.49333,82.49333 0 0 0 104.9187,124.34262 Z"/><path id="circle1174" style="display:inline;fill:#e5a50a;fill-opacity:1;stroke:none;stroke-width:0;stroke-miterlimit:4;stroke-dasharray:none" d="m 104.9187,179.38998 a 82.49333,82.49333 0 0 0 -61.440086,27.4462 82.49333,82.49333 0 0 0 61.440086,27.44569 82.49333,82.49333 0 0 0 61.4406,-27.4462 82.49333,82.49333 0 0 0 -61.4406,-27.44569 z"/></g></svg>